<?xml version="1.0" encoding="UTF-8" standalone="no"?>
<!DOCTYPE svg PUBLIC "-//W3C//DTD SVG 1.1//EN"
 "http://www.w3.org/Graphics/SVG/1.1/DTD/svg11.dtd">
<!-- Generated by graphviz version 2.43.0 (0)
 -->
<!-- Title: %3 Pages: 1 -->
<svg width="284pt" height="281pt"
 viewBox="0.00 0.00 204.60 202.00" xmlns="http://www.w3.org/2000/svg" xmlns:xlink="http://www.w3.org/1999/xlink">
<g id="graph0" class="graph" transform="scale(0.72 0.72) rotate(0) translate(4 198)">
<title>%3</title>
<polygon fill="white" stroke="transparent" points="-4,4 -4,-198 200.6,-198 200.6,4 -4,4"/>
<!-- comp -->
<g id="node1" class="node">
<title>comp</title>
<ellipse fill="#196f3d" stroke="black" cx="59.09" cy="-176" rx="32.75" ry="18"/>
<text text-anchor="start" x="40.59" y="-173.9" font-family="Helvetica,sans-Serif" font-weight="bold" font-size="12.00" fill="white">comp</text>
</g>
<!-- draw -->
<g id="node4" class="node">
<title>draw</title>
<polygon fill="lavender" stroke="black" points="99.09,-121 1.59,-103 99.09,-85 196.6,-103 99.09,-121"/>
<text text-anchor="start" x="51.09" y="-100.9" font-family="Helvetica,sans-Serif" font-weight="bold" font-size="12.00">comp</text>
<text text-anchor="start" x="88.09" y="-100.9" font-family="Helvetica,sans-Serif" font-size="12.00"> == </text>
<text text-anchor="start" x="116.09" y="-100.9" font-family="Helvetica,sans-Serif" font-weight="bold" font-size="12.00">user</text>
</g>
<!-- comp&#45;&gt;draw -->
<g id="edge1" class="edge">
<title>comp&#45;&gt;draw</title>
<path fill="none" stroke="black" d="M68.37,-158.53C73.41,-149.59 79.73,-138.36 85.33,-128.42"/>
<polygon fill="black" stroke="black" points="88.56,-129.84 90.41,-119.41 82.46,-126.4 88.56,-129.84"/>
</g>
<!-- user -->
<g id="node2" class="node">
<title>user</title>
<ellipse fill="#196f3d" stroke="black" cx="139.09" cy="-176" rx="28.87" ry="18"/>
<text text-anchor="start" x="123.59" y="-173.9" font-family="Helvetica,sans-Serif" font-weight="bold" font-size="12.00" fill="white">user</text>
</g>
<!-- user&#45;&gt;draw -->
<g id="edge2" class="edge">
<title>user&#45;&gt;draw</title>
<path fill="none" stroke="black" d="M130.02,-158.89C124.93,-149.87 118.49,-138.44 112.81,-128.34"/>
<polygon fill="black" stroke="black" points="115.82,-126.55 107.86,-119.56 109.72,-129.99 115.82,-126.55"/>
</g>
<!-- is_draw -->
<g id="node3" class="node">
<title>is_draw</title>
<ellipse fill="firebrick" stroke="black" cx="51.09" cy="-18" rx="51.19" ry="18"/>
<text text-anchor="start" x="17.59" y="-14.9" font-family="Helvetica,sans-Serif" font-size="12.00" fill="white">&quot;Gelijkspel&quot;</text>
</g>
<!-- draw&#45;&gt;is_draw -->
<g id="edge3" class="edge">
<title>draw&#45;&gt;is_draw</title>
<path fill="none" stroke="black" d="M90.07,-86.39C83.27,-74.64 73.81,-58.27 65.91,-44.62"/>
<polygon fill="black" stroke="black" points="68.78,-42.59 60.74,-35.68 62.72,-46.09 68.78,-42.59"/>
<text text-anchor="start" x="78.09" y="-57.4" font-family="Helvetica,sans-Serif" font-size="12.00">True</text>
</g>
<!-- what_next -->
<g id="node5" class="node">
<title>what_next</title>
<polygon fill="transparent" stroke="transparent" points="174.09,-36 120.09,-36 120.09,0 174.09,0 174.09,-36"/>
<text text-anchor="start" x="141.59" y="-14.6" font-family="Helvetica,sans-Serif" font-weight="bold" font-size="18.00">?</text>
</g>
<!-- draw&#45;&gt;what_next -->
<g id="edge4" class="edge">
<title>draw&#45;&gt;what_next</title>
<path fill="none" stroke="black" d="M108.12,-86.39C114.83,-74.79 124.14,-58.7 131.97,-45.15"/>
<polygon fill="black" stroke="black" points="135.14,-46.67 137.11,-36.26 129.08,-43.17 135.14,-46.67"/>
<text text-anchor="start" x="125.09" y="-57.4" font-family="Helvetica,sans-Serif" font-size="12.00">False</text>
</g>
</g>
</svg>
