<?xml version="1.0" encoding="UTF-8" standalone="no"?>
<!DOCTYPE svg PUBLIC "-//W3C//DTD SVG 1.1//EN"
 "http://www.w3.org/Graphics/SVG/1.1/DTD/svg11.dtd">
<!-- Generated by graphviz version 2.43.0 (0)
 -->
<!-- Title: %3 Pages: 1 -->
<svg width="394pt" height="61pt"
 viewBox="0.00 0.00 283.49 44.00" xmlns="http://www.w3.org/2000/svg" xmlns:xlink="http://www.w3.org/1999/xlink">
<g id="graph0" class="graph" transform="scale(0.72 0.72) rotate(0) translate(4 40)">
<title>%3</title>
<polygon fill="white" stroke="transparent" points="-4,4 -4,-40 279.49,-40 279.49,4 -4,4"/>
<!-- input -->
<g id="node1" class="node">
<title>input</title>
<ellipse fill="#196f3d" stroke="black" cx="34.45" cy="-18" rx="34.39" ry="18"/>
<text text-anchor="middle" x="34.45" y="-14.3" font-family="Helvetica,sans-Serif" font-size="14.00" fill="white">input</text>
</g>
<!-- algo -->
<g id="node3" class="node">
<title>algo</title>
<polygon fill="lavender" stroke="black" points="158.89,-36 104.89,-36 104.89,0 158.89,0 158.89,-36"/>
<text text-anchor="middle" x="131.89" y="-14.3" font-family="Helvetica,sans-Serif" font-size="14.00">?</text>
</g>
<!-- input&#45;&gt;algo -->
<g id="edge1" class="edge">
<title>input&#45;&gt;algo</title>
<path fill="none" stroke="black" d="M69.1,-18C77.32,-18 86.16,-18 94.51,-18"/>
<polygon fill="black" stroke="black" points="94.74,-21.5 104.74,-18 94.74,-14.5 94.74,-21.5"/>
</g>
<!-- output -->
<g id="node2" class="node">
<title>output</title>
<ellipse fill="firebrick" stroke="black" cx="235.19" cy="-18" rx="40.09" ry="18"/>
<text text-anchor="middle" x="235.19" y="-14.3" font-family="Helvetica,sans-Serif" font-size="14.00" fill="white">output</text>
</g>
<!-- algo&#45;&gt;output -->
<g id="edge2" class="edge">
<title>algo&#45;&gt;output</title>
<path fill="none" stroke="black" d="M158.98,-18C166.82,-18 175.69,-18 184.52,-18"/>
<polygon fill="black" stroke="black" points="184.81,-21.5 194.81,-18 184.81,-14.5 184.81,-21.5"/>
</g>
</g>
</svg>
