<?xml version="1.0" encoding="UTF-8" standalone="no"?>
<!DOCTYPE svg PUBLIC "-//W3C//DTD SVG 1.1//EN"
 "http://www.w3.org/Graphics/SVG/1.1/DTD/svg11.dtd">
<!-- Generated by graphviz version 2.43.0 (0)
 -->
<!-- Title: rps5 Pages: 1 -->
<svg width="431pt" height="385pt"
 viewBox="0.00 0.00 310.13 276.94" xmlns="http://www.w3.org/2000/svg" xmlns:xlink="http://www.w3.org/1999/xlink">
<g id="graph0" class="graph" transform="scale(0.72 0.72) rotate(0) translate(4 272.94)">
<title>rps5</title>
<polygon fill="white" stroke="transparent" points="-4,4 -4,-272.94 306.13,-272.94 306.13,4 -4,4"/>
<!-- steen -->
<g id="node1" class="node">
<title>steen</title>
<ellipse fill="none" stroke="black" cx="176.57" cy="-18" rx="36" ry="18"/>
<text text-anchor="middle" x="176.57" y="-14.3" font-family="Helvetica,sans-Serif" font-size="14.00">steen</text>
</g>
<!-- schaar -->
<g id="node2" class="node">
<title>schaar</title>
<ellipse fill="none" stroke="black" cx="261.19" cy="-134.47" rx="40.89" ry="18"/>
<text text-anchor="middle" x="261.19" y="-130.77" font-family="Helvetica,sans-Serif" font-size="14.00">schaar</text>
</g>
<!-- steen&#45;&gt;schaar -->
<g id="edge1" class="edge">
<title>steen&#45;&gt;schaar</title>
<path fill="none" stroke="black" d="M189.05,-35.19C203.18,-54.63 226.32,-86.48 242.58,-108.86"/>
<polygon fill="black" stroke="black" points="239.94,-111.18 248.65,-117.21 245.6,-107.07 239.94,-111.18"/>
</g>
<!-- water -->
<g id="node5" class="node">
<title>water</title>
<ellipse fill="none" stroke="black" cx="39.65" cy="-62.49" rx="36.29" ry="18"/>
<text text-anchor="middle" x="39.65" y="-58.79" font-family="Helvetica,sans-Serif" font-size="14.00">water</text>
</g>
<!-- steen&#45;&gt;water -->
<g id="edge8" class="edge">
<title>steen&#45;&gt;water</title>
<path fill="none" stroke="black" d="M146.52,-27.76C126.95,-34.12 101.18,-42.49 79.85,-49.42"/>
<polygon fill="black" stroke="black" points="78.53,-46.17 70.1,-52.59 80.69,-52.83 78.53,-46.17"/>
</g>
<!-- papier -->
<g id="node3" class="node">
<title>papier</title>
<ellipse fill="none" stroke="black" cx="39.65" cy="-206.45" rx="39.79" ry="18"/>
<text text-anchor="middle" x="39.65" y="-202.75" font-family="Helvetica,sans-Serif" font-size="14.00">papier</text>
</g>
<!-- schaar&#45;&gt;papier -->
<g id="edge2" class="edge">
<title>schaar&#45;&gt;papier</title>
<path fill="none" stroke="black" d="M228.02,-145.25C189.02,-157.92 124.23,-178.97 81.72,-192.78"/>
<polygon fill="black" stroke="black" points="80.39,-189.54 71.96,-195.95 82.55,-196.19 80.39,-189.54"/>
</g>
<!-- schaar&#45;&gt;water -->
<g id="edge9" class="edge">
<title>schaar&#45;&gt;water</title>
<path fill="none" stroke="black" d="M228.02,-123.69C188.46,-110.84 122.36,-89.36 79.91,-75.57"/>
<polygon fill="black" stroke="black" points="80.78,-72.17 70.18,-72.41 78.61,-78.83 80.78,-72.17"/>
</g>
<!-- papier&#45;&gt;steen -->
<g id="edge3" class="edge">
<title>papier&#45;&gt;steen</title>
<path fill="none" stroke="black" d="M52.28,-189.06C76.59,-155.6 129.97,-82.14 158.21,-43.27"/>
<polygon fill="black" stroke="black" points="161.11,-45.22 164.16,-35.08 155.45,-41.11 161.11,-45.22"/>
</g>
<!-- papier&#45;&gt;water -->
<g id="edge10" class="edge">
<title>papier&#45;&gt;water</title>
<path fill="none" stroke="black" d="M39.65,-188.22C39.65,-163.66 39.65,-119.72 39.65,-90.83"/>
<polygon fill="black" stroke="black" points="43.15,-90.57 39.65,-80.57 36.15,-90.57 43.15,-90.57"/>
</g>
<!-- vuur -->
<g id="node4" class="node">
<title>vuur</title>
<ellipse fill="none" stroke="black" cx="176.57" cy="-250.94" rx="31.7" ry="18"/>
<text text-anchor="middle" x="176.57" y="-247.24" font-family="Helvetica,sans-Serif" font-size="14.00">vuur</text>
</g>
<!-- vuur&#45;&gt;steen -->
<g id="edge4" class="edge">
<title>vuur&#45;&gt;steen</title>
<path fill="none" stroke="black" d="M176.57,-232.66C176.57,-192.18 176.57,-94.72 176.57,-46.29"/>
<polygon fill="black" stroke="black" points="180.07,-46.19 176.57,-36.19 173.07,-46.19 180.07,-46.19"/>
</g>
<!-- vuur&#45;&gt;schaar -->
<g id="edge5" class="edge">
<title>vuur&#45;&gt;schaar</title>
<path fill="none" stroke="black" d="M188.69,-234.25C202.79,-214.84 226.23,-182.58 242.63,-160.02"/>
<polygon fill="black" stroke="black" points="245.49,-162.03 248.53,-151.89 239.82,-157.92 245.49,-162.03"/>
</g>
<!-- vuur&#45;&gt;papier -->
<g id="edge6" class="edge">
<title>vuur&#45;&gt;papier</title>
<path fill="none" stroke="black" d="M148.86,-241.94C129.61,-235.68 103.61,-227.24 81.81,-220.15"/>
<polygon fill="black" stroke="black" points="82.72,-216.77 72.13,-217.01 80.56,-223.43 82.72,-216.77"/>
</g>
<!-- water&#45;&gt;vuur -->
<g id="edge7" class="edge">
<title>water&#45;&gt;vuur</title>
<path fill="none" stroke="black" d="M52.04,-79.54C76.27,-112.9 130.04,-186.91 158.34,-225.86"/>
<polygon fill="black" stroke="black" points="155.59,-228.03 164.3,-234.06 161.25,-223.91 155.59,-228.03"/>
</g>
</g>
</svg>
