<?xml version="1.0" encoding="UTF-8" standalone="no"?>
<!DOCTYPE svg PUBLIC "-//W3C//DTD SVG 1.1//EN"
 "http://www.w3.org/Graphics/SVG/1.1/DTD/svg11.dtd">
<!-- Generated by graphviz version 2.43.0 (0)
 -->
<!-- Title: %3 Pages: 1 -->
<svg width="509pt" height="399pt"
 viewBox="0.00 0.00 366.45 287.00" xmlns="http://www.w3.org/2000/svg" xmlns:xlink="http://www.w3.org/1999/xlink">
<g id="graph0" class="graph" transform="scale(0.72 0.72) rotate(0) translate(4 283)">
<title>%3</title>
<polygon fill="white" stroke="transparent" points="-4,4 -4,-283 362.45,-283 362.45,4 -4,4"/>
<!-- comp -->
<g id="node1" class="node">
<title>comp</title>
<ellipse fill="#196f3d" stroke="black" cx="57.5" cy="-261" rx="32.75" ry="18"/>
<text text-anchor="start" x="39" y="-258.9" font-family="Helvetica,sans-Serif" font-weight="bold" font-size="12.00" fill="white">comp</text>
</g>
<!-- draw -->
<g id="node4" class="node">
<title>draw</title>
<polygon fill="lavender" stroke="black" points="97.5,-206 -0,-188 97.5,-170 195.01,-188 97.5,-206"/>
<text text-anchor="start" x="49.5" y="-185.9" font-family="Helvetica,sans-Serif" font-weight="bold" font-size="12.00">comp</text>
<text text-anchor="start" x="86.5" y="-185.9" font-family="Helvetica,sans-Serif" font-size="12.00"> == </text>
<text text-anchor="start" x="114.5" y="-185.9" font-family="Helvetica,sans-Serif" font-weight="bold" font-size="12.00">user</text>
</g>
<!-- comp&#45;&gt;draw -->
<g id="edge1" class="edge">
<title>comp&#45;&gt;draw</title>
<path fill="none" stroke="black" d="M66.78,-243.53C71.82,-234.59 78.14,-223.36 83.74,-213.42"/>
<polygon fill="black" stroke="black" points="86.97,-214.84 88.82,-204.41 80.87,-211.4 86.97,-214.84"/>
</g>
<!-- user -->
<g id="node2" class="node">
<title>user</title>
<ellipse fill="#196f3d" stroke="black" cx="137.5" cy="-261" rx="28.87" ry="18"/>
<text text-anchor="start" x="122" y="-258.9" font-family="Helvetica,sans-Serif" font-weight="bold" font-size="12.00" fill="white">user</text>
</g>
<!-- user&#45;&gt;draw -->
<g id="edge2" class="edge">
<title>user&#45;&gt;draw</title>
<path fill="none" stroke="black" d="M128.43,-243.89C123.34,-234.87 116.9,-223.44 111.22,-213.34"/>
<polygon fill="black" stroke="black" points="114.23,-211.55 106.27,-204.56 108.13,-214.99 114.23,-211.55"/>
</g>
<!-- is_draw -->
<g id="node3" class="node">
<title>is_draw</title>
<ellipse fill="firebrick" stroke="black" cx="73.5" cy="-103" rx="51.19" ry="18"/>
<text text-anchor="start" x="40" y="-99.9" font-family="Helvetica,sans-Serif" font-size="12.00" fill="white">&quot;Gelijkspel&quot;</text>
</g>
<!-- draw&#45;&gt;is_draw -->
<g id="edge3" class="edge">
<title>draw&#45;&gt;is_draw</title>
<path fill="none" stroke="black" d="M92.76,-170.6C89.49,-159.27 85.05,-143.94 81.26,-130.84"/>
<polygon fill="black" stroke="black" points="84.54,-129.57 78.4,-120.93 77.82,-131.51 84.54,-129.57"/>
<text text-anchor="start" x="87.5" y="-142.4" font-family="Helvetica,sans-Serif" font-size="12.00">True</text>
</g>
<!-- comp_rock -->
<g id="node5" class="node">
<title>comp_rock</title>
<polygon fill="lavender" stroke="black" points="250.5,-121 142.6,-103 250.5,-85 358.41,-103 250.5,-121"/>
<text text-anchor="start" x="196.5" y="-100.9" font-family="Helvetica,sans-Serif" font-weight="bold" font-size="12.00">comp</text>
<text text-anchor="start" x="233.5" y="-100.9" font-family="Helvetica,sans-Serif" font-size="12.00"> == &quot;steen&quot;</text>
</g>
<!-- draw&#45;&gt;comp_rock -->
<g id="edge4" class="edge">
<title>draw&#45;&gt;comp_rock</title>
<path fill="none" stroke="black" d="M121.07,-174.21C146.87,-160.22 188.4,-137.69 217.45,-121.93"/>
<polygon fill="black" stroke="black" points="219.28,-124.92 226.4,-117.08 215.94,-118.77 219.28,-124.92"/>
<text text-anchor="start" x="183.5" y="-142.4" font-family="Helvetica,sans-Serif" font-size="12.00">False</text>
</g>
<!-- what_next_true -->
<g id="node6" class="node">
<title>what_next_true</title>
<polygon fill="transparent" stroke="transparent" points="241.5,-36 187.5,-36 187.5,0 241.5,0 241.5,-36"/>
<text text-anchor="start" x="209" y="-14.6" font-family="Helvetica,sans-Serif" font-weight="bold" font-size="18.00">?</text>
</g>
<!-- comp_rock&#45;&gt;what_next_true -->
<g id="edge5" class="edge">
<title>comp_rock&#45;&gt;what_next_true</title>
<path fill="none" stroke="black" d="M243.56,-86C238.56,-74.47 231.71,-58.67 225.91,-45.3"/>
<polygon fill="black" stroke="black" points="229.11,-43.88 221.92,-36.1 222.69,-46.66 229.11,-43.88"/>
<text text-anchor="start" x="235.5" y="-57.4" font-family="Helvetica,sans-Serif" font-size="12.00">True</text>
</g>
<!-- what_next_false -->
<g id="node7" class="node">
<title>what_next_false</title>
<polygon fill="transparent" stroke="transparent" points="313.5,-36 259.5,-36 259.5,0 313.5,0 313.5,-36"/>
<text text-anchor="start" x="281" y="-14.6" font-family="Helvetica,sans-Serif" font-weight="bold" font-size="18.00">?</text>
</g>
<!-- comp_rock&#45;&gt;what_next_false -->
<g id="edge6" class="edge">
<title>comp_rock&#45;&gt;what_next_false</title>
<path fill="none" stroke="black" d="M257.45,-86C262.44,-74.47 269.3,-58.67 275.1,-45.3"/>
<polygon fill="black" stroke="black" points="278.32,-46.66 279.09,-36.1 271.9,-43.88 278.32,-46.66"/>
<text text-anchor="start" x="271.5" y="-57.4" font-family="Helvetica,sans-Serif" font-size="12.00">False</text>
</g>
</g>
</svg>
