<?xml version="1.0" encoding="UTF-8" standalone="no"?>
<!DOCTYPE svg PUBLIC "-//W3C//DTD SVG 1.1//EN"
 "http://www.w3.org/Graphics/SVG/1.1/DTD/svg11.dtd">
<!-- Generated by graphviz version 2.43.0 (0)
 -->
<!-- Title: %3 Pages: 1 -->
<svg width="448pt" height="261pt"
 viewBox="0.00 0.00 322.49 188.00" xmlns="http://www.w3.org/2000/svg" xmlns:xlink="http://www.w3.org/1999/xlink">
<g id="graph0" class="graph" transform="scale(0.72 0.72) rotate(0) translate(4 184)">
<title>%3</title>
<polygon fill="white" stroke="transparent" points="-4,4 -4,-184 318.49,-184 318.49,4 -4,4"/>
<!-- comp -->
<g id="node1" class="node">
<title>comp</title>
<ellipse fill="#196f3d" stroke="black" cx="121.09" cy="-162" rx="32.75" ry="18"/>
<text text-anchor="start" x="102.59" y="-159.9" font-family="Helvetica,sans-Serif" font-weight="bold" font-size="12.00" fill="white">comp</text>
</g>
<!-- algo -->
<g id="node6" class="node">
<title>algo</title>
<polygon fill="lavender" stroke="black" points="179.09,-108 143.09,-108 143.09,-72 179.09,-72 179.09,-108"/>
<text text-anchor="middle" x="161.09" y="-86.3" font-family="Helvetica,sans-Serif" font-size="14.00">?</text>
</g>
<!-- comp&#45;&gt;algo -->
<g id="edge1" class="edge">
<title>comp&#45;&gt;algo</title>
<path fill="none" stroke="black" d="M130.57,-144.41C135.22,-136.28 140.92,-126.31 146.13,-117.18"/>
<polygon fill="black" stroke="black" points="149.2,-118.87 151.12,-108.45 143.12,-115.39 149.2,-118.87"/>
</g>
<!-- user -->
<g id="node2" class="node">
<title>user</title>
<ellipse fill="#196f3d" stroke="black" cx="201.09" cy="-162" rx="28.87" ry="18"/>
<text text-anchor="start" x="185.59" y="-159.9" font-family="Helvetica,sans-Serif" font-weight="bold" font-size="12.00" fill="white">user</text>
</g>
<!-- user&#45;&gt;algo -->
<g id="edge2" class="edge">
<title>user&#45;&gt;algo</title>
<path fill="none" stroke="black" d="M191.82,-144.76C187.11,-136.53 181.27,-126.32 175.96,-117.02"/>
<polygon fill="black" stroke="black" points="178.88,-115.07 170.88,-108.12 172.8,-118.54 178.88,-115.07"/>
</g>
<!-- is_draw -->
<g id="node3" class="node">
<title>is_draw</title>
<ellipse fill="firebrick" stroke="black" cx="51.09" cy="-18" rx="51.19" ry="18"/>
<text text-anchor="start" x="17.59" y="-14.9" font-family="Helvetica,sans-Serif" font-size="12.00" fill="white">&quot;Gelijkspel&quot;</text>
</g>
<!-- is_win -->
<g id="node4" class="node">
<title>is_win</title>
<ellipse fill="firebrick" stroke="black" cx="161.09" cy="-18" rx="40.76" ry="18"/>
<text text-anchor="start" x="136.09" y="-14.9" font-family="Helvetica,sans-Serif" font-size="12.00" fill="white">&quot;Ik win!&quot;</text>
</g>
<!-- is_loss -->
<g id="node5" class="node">
<title>is_loss</title>
<ellipse fill="firebrick" stroke="black" cx="267.09" cy="-18" rx="47.3" ry="18"/>
<text text-anchor="start" x="236.59" y="-14.9" font-family="Helvetica,sans-Serif" font-size="12.00" fill="white">&quot;Jij wint...&quot;</text>
</g>
<!-- algo&#45;&gt;is_draw -->
<g id="edge3" class="edge">
<title>algo&#45;&gt;is_draw</title>
<path fill="none" stroke="black" d="M142.93,-77.44C126.74,-67.14 102.66,-51.82 83.22,-39.45"/>
<polygon fill="black" stroke="black" points="84.98,-36.41 74.66,-34 81.22,-42.32 84.98,-36.41"/>
</g>
<!-- algo&#45;&gt;is_win -->
<g id="edge4" class="edge">
<title>algo&#45;&gt;is_win</title>
<path fill="none" stroke="black" d="M161.09,-71.7C161.09,-63.98 161.09,-54.71 161.09,-46.11"/>
<polygon fill="black" stroke="black" points="164.59,-46.1 161.09,-36.1 157.59,-46.1 164.59,-46.1"/>
</g>
<!-- algo&#45;&gt;is_loss -->
<g id="edge5" class="edge">
<title>algo&#45;&gt;is_loss</title>
<path fill="none" stroke="black" d="M179.56,-76.81C195.05,-66.57 217.53,-51.73 235.82,-39.65"/>
<polygon fill="black" stroke="black" points="238,-42.41 244.42,-33.97 234.15,-36.56 238,-42.41"/>
</g>
</g>
</svg>
