<?xml version="1.0" encoding="UTF-8" standalone="no"?>
<!DOCTYPE svg PUBLIC "-//W3C//DTD SVG 1.1//EN"
 "http://www.w3.org/Graphics/SVG/1.1/DTD/svg11.dtd">
<!-- Generated by graphviz version 2.43.0 (0)
 -->
<!-- Title: %3 Pages: 1 -->
<svg width="509pt" height="517pt"
 viewBox="0.00 0.00 366.45 372.00" xmlns="http://www.w3.org/2000/svg" xmlns:xlink="http://www.w3.org/1999/xlink">
<g id="graph0" class="graph" transform="scale(0.72 0.72) rotate(0) translate(4 368)">
<title>%3</title>
<polygon fill="white" stroke="transparent" points="-4,4 -4,-368 362.45,-368 362.45,4 -4,4"/>
<!-- comp -->
<g id="node1" class="node">
<title>comp</title>
<ellipse fill="#196f3d" stroke="black" cx="57.5" cy="-346" rx="32.75" ry="18"/>
<text text-anchor="start" x="39" y="-343.9" font-family="Helvetica,sans-Serif" font-weight="bold" font-size="12.00" fill="white">comp</text>
</g>
<!-- draw -->
<g id="node6" class="node">
<title>draw</title>
<polygon fill="lavender" stroke="black" points="97.5,-291 -0,-273 97.5,-255 195.01,-273 97.5,-291"/>
<text text-anchor="start" x="49.5" y="-270.9" font-family="Helvetica,sans-Serif" font-weight="bold" font-size="12.00">comp</text>
<text text-anchor="start" x="86.5" y="-270.9" font-family="Helvetica,sans-Serif" font-size="12.00"> == </text>
<text text-anchor="start" x="114.5" y="-270.9" font-family="Helvetica,sans-Serif" font-weight="bold" font-size="12.00">user</text>
</g>
<!-- comp&#45;&gt;draw -->
<g id="edge1" class="edge">
<title>comp&#45;&gt;draw</title>
<path fill="none" stroke="black" d="M66.78,-328.53C71.82,-319.59 78.14,-308.36 83.74,-298.42"/>
<polygon fill="black" stroke="black" points="86.97,-299.84 88.82,-289.41 80.87,-296.4 86.97,-299.84"/>
</g>
<!-- user -->
<g id="node2" class="node">
<title>user</title>
<ellipse fill="#196f3d" stroke="black" cx="137.5" cy="-346" rx="28.87" ry="18"/>
<text text-anchor="start" x="122" y="-343.9" font-family="Helvetica,sans-Serif" font-weight="bold" font-size="12.00" fill="white">user</text>
</g>
<!-- user&#45;&gt;draw -->
<g id="edge2" class="edge">
<title>user&#45;&gt;draw</title>
<path fill="none" stroke="black" d="M128.43,-328.89C123.34,-319.87 116.9,-308.44 111.22,-298.34"/>
<polygon fill="black" stroke="black" points="114.23,-296.55 106.27,-289.56 108.13,-299.99 114.23,-296.55"/>
</g>
<!-- is_draw -->
<g id="node3" class="node">
<title>is_draw</title>
<ellipse fill="firebrick" stroke="black" cx="73.5" cy="-188" rx="51.19" ry="18"/>
<text text-anchor="start" x="40" y="-184.9" font-family="Helvetica,sans-Serif" font-size="12.00" fill="white">&quot;Gelijkspel&quot;</text>
</g>
<!-- comp_win_rock -->
<g id="node4" class="node">
<title>comp_win_rock</title>
<ellipse fill="firebrick" stroke="black" cx="93.5" cy="-18" rx="40.76" ry="18"/>
<text text-anchor="start" x="68.5" y="-14.9" font-family="Helvetica,sans-Serif" font-size="12.00" fill="white">&quot;Ik win!&quot;</text>
</g>
<!-- user_win_scissors -->
<g id="node5" class="node">
<title>user_win_scissors</title>
<ellipse fill="firebrick" stroke="black" cx="199.5" cy="-18" rx="47.3" ry="18"/>
<text text-anchor="start" x="169" y="-14.9" font-family="Helvetica,sans-Serif" font-size="12.00" fill="white">&quot;Jij wint...&quot;</text>
</g>
<!-- draw&#45;&gt;is_draw -->
<g id="edge3" class="edge">
<title>draw&#45;&gt;is_draw</title>
<path fill="none" stroke="black" d="M92.76,-255.6C89.49,-244.27 85.05,-228.94 81.26,-215.84"/>
<polygon fill="black" stroke="black" points="84.54,-214.57 78.4,-205.93 77.82,-216.51 84.54,-214.57"/>
<text text-anchor="start" x="87.5" y="-227.4" font-family="Helvetica,sans-Serif" font-size="12.00">True</text>
</g>
<!-- comp_rock -->
<g id="node7" class="node">
<title>comp_rock</title>
<polygon fill="lavender" stroke="black" points="250.5,-206 142.6,-188 250.5,-170 358.41,-188 250.5,-206"/>
<text text-anchor="start" x="196.5" y="-185.9" font-family="Helvetica,sans-Serif" font-weight="bold" font-size="12.00">comp</text>
<text text-anchor="start" x="233.5" y="-185.9" font-family="Helvetica,sans-Serif" font-size="12.00"> == &quot;steen&quot;</text>
</g>
<!-- draw&#45;&gt;comp_rock -->
<g id="edge4" class="edge">
<title>draw&#45;&gt;comp_rock</title>
<path fill="none" stroke="black" d="M121.07,-259.21C146.87,-245.22 188.4,-222.69 217.45,-206.93"/>
<polygon fill="black" stroke="black" points="219.28,-209.92 226.4,-202.08 215.94,-203.77 219.28,-209.92"/>
<text text-anchor="start" x="182.5" y="-227.4" font-family="Helvetica,sans-Serif" font-size="12.00">False</text>
</g>
<!-- user_scissors -->
<g id="node8" class="node">
<title>user_scissors</title>
<polygon fill="lavender" stroke="black" points="146.5,-121 36.62,-103 146.5,-85 256.39,-103 146.5,-121"/>
<text text-anchor="start" x="91.5" y="-100.9" font-family="Helvetica,sans-Serif" font-weight="bold" font-size="12.00">user</text>
<text text-anchor="start" x="122.5" y="-100.9" font-family="Helvetica,sans-Serif" font-size="12.00"> == &quot;schaar&quot;</text>
</g>
<!-- comp_rock&#45;&gt;user_scissors -->
<g id="edge5" class="edge">
<title>comp_rock&#45;&gt;user_scissors</title>
<path fill="none" stroke="black" d="M232.86,-172.92C216.2,-159.62 191.03,-139.53 172.15,-124.47"/>
<polygon fill="black" stroke="black" points="174.23,-121.65 164.23,-118.15 169.87,-127.12 174.23,-121.65"/>
<text text-anchor="start" x="204.5" y="-142.4" font-family="Helvetica,sans-Serif" font-size="12.00">True</text>
</g>
<!-- what_next -->
<g id="node9" class="node">
<title>what_next</title>
<polygon fill="transparent" stroke="transparent" points="328.5,-121 274.5,-121 274.5,-85 328.5,-85 328.5,-121"/>
<text text-anchor="start" x="296" y="-99.6" font-family="Helvetica,sans-Serif" font-weight="bold" font-size="18.00">?</text>
</g>
<!-- comp_rock&#45;&gt;what_next -->
<g id="edge6" class="edge">
<title>comp_rock&#45;&gt;what_next</title>
<path fill="none" stroke="black" d="M260.1,-171.39C267.22,-159.79 277.11,-143.7 285.44,-130.15"/>
<polygon fill="black" stroke="black" points="288.64,-131.61 290.9,-121.26 282.68,-127.95 288.64,-131.61"/>
<text text-anchor="start" x="278.5" y="-142.4" font-family="Helvetica,sans-Serif" font-size="12.00">False</text>
</g>
<!-- user_scissors&#45;&gt;comp_win_rock -->
<g id="edge7" class="edge">
<title>user_scissors&#45;&gt;comp_win_rock</title>
<path fill="none" stroke="black" d="M136.54,-86.39C128.91,-74.45 118.24,-57.74 109.44,-43.95"/>
<polygon fill="black" stroke="black" points="112.3,-41.94 103.97,-35.39 106.4,-45.71 112.3,-41.94"/>
<text text-anchor="start" x="122.5" y="-57.4" font-family="Helvetica,sans-Serif" font-size="12.00">True</text>
</g>
<!-- user_scissors&#45;&gt;user_win_scissors -->
<g id="edge8" class="edge">
<title>user_scissors&#45;&gt;user_win_scissors</title>
<path fill="none" stroke="black" d="M156.47,-86.39C164.05,-74.52 174.63,-57.96 183.4,-44.22"/>
<polygon fill="black" stroke="black" points="186.42,-45.99 188.85,-35.68 180.52,-42.23 186.42,-45.99"/>
<text text-anchor="start" x="175.5" y="-57.4" font-family="Helvetica,sans-Serif" font-size="12.00">False</text>
</g>
</g>
</svg>
