<?xml version="1.0" encoding="UTF-8" standalone="no"?>
<!DOCTYPE svg PUBLIC "-//W3C//DTD SVG 1.1//EN"
 "http://www.w3.org/Graphics/SVG/1.1/DTD/svg11.dtd">
<!-- Generated by graphviz version 2.43.0 (0)
 -->
<!-- Title: %3 Pages: 1 -->
<svg width="944pt" height="753pt"
 viewBox="0.00 0.00 679.54 542.00" xmlns="http://www.w3.org/2000/svg" xmlns:xlink="http://www.w3.org/1999/xlink">
<g id="graph0" class="graph" transform="scale(0.72 0.72) rotate(0) translate(4 538)">
<title>%3</title>
<polygon fill="white" stroke="transparent" points="-4,4 -4,-538 675.54,-538 675.54,4 -4,4"/>
<!-- comp -->
<g id="node1" class="node">
<title>comp</title>
<ellipse fill="#196f3d" stroke="black" cx="64.63" cy="-516" rx="32.75" ry="18"/>
<text text-anchor="start" x="46.13" y="-513.9" font-family="Helvetica,sans-Serif" font-weight="bold" font-size="12.00" fill="white">comp</text>
</g>
<!-- draw -->
<g id="node10" class="node">
<title>draw</title>
<polygon fill="lavender" stroke="black" points="104.63,-461 7.12,-443 104.63,-425 202.14,-443 104.63,-461"/>
<text text-anchor="start" x="56.63" y="-440.9" font-family="Helvetica,sans-Serif" font-weight="bold" font-size="12.00">comp</text>
<text text-anchor="start" x="93.63" y="-440.9" font-family="Helvetica,sans-Serif" font-size="12.00"> == </text>
<text text-anchor="start" x="121.63" y="-440.9" font-family="Helvetica,sans-Serif" font-weight="bold" font-size="12.00">user</text>
</g>
<!-- comp&#45;&gt;draw -->
<g id="edge1" class="edge">
<title>comp&#45;&gt;draw</title>
<path fill="none" stroke="black" d="M73.91,-498.53C78.94,-489.59 85.27,-478.36 90.87,-468.42"/>
<polygon fill="black" stroke="black" points="94.09,-469.84 95.95,-459.41 87.99,-466.4 94.09,-469.84"/>
</g>
<!-- user -->
<g id="node2" class="node">
<title>user</title>
<ellipse fill="#196f3d" stroke="black" cx="144.63" cy="-516" rx="28.87" ry="18"/>
<text text-anchor="start" x="129.13" y="-513.9" font-family="Helvetica,sans-Serif" font-weight="bold" font-size="12.00" fill="white">user</text>
</g>
<!-- user&#45;&gt;draw -->
<g id="edge2" class="edge">
<title>user&#45;&gt;draw</title>
<path fill="none" stroke="black" d="M135.55,-498.89C130.47,-489.87 124.03,-478.44 118.34,-468.34"/>
<polygon fill="black" stroke="black" points="121.35,-466.55 113.39,-459.56 115.25,-469.99 121.35,-466.55"/>
</g>
<!-- is_draw -->
<g id="node3" class="node">
<title>is_draw</title>
<ellipse fill="firebrick" stroke="black" cx="80.63" cy="-358" rx="51.19" ry="18"/>
<text text-anchor="start" x="47.13" y="-354.9" font-family="Helvetica,sans-Serif" font-size="12.00" fill="white">&quot;Gelijkspel&quot;</text>
</g>
<!-- comp_win_rock -->
<g id="node4" class="node">
<title>comp_win_rock</title>
<ellipse fill="firebrick" stroke="black" cx="40.63" cy="-188" rx="40.76" ry="18"/>
<text text-anchor="start" x="15.63" y="-184.9" font-family="Helvetica,sans-Serif" font-size="12.00" fill="white">&quot;Ik win!&quot;</text>
</g>
<!-- comp_win_paper -->
<g id="node5" class="node">
<title>comp_win_paper</title>
<ellipse fill="firebrick" stroke="black" cx="246.63" cy="-103" rx="40.76" ry="18"/>
<text text-anchor="start" x="221.63" y="-99.9" font-family="Helvetica,sans-Serif" font-size="12.00" fill="white">&quot;Ik win!&quot;</text>
</g>
<!-- comp_win_scissors -->
<g id="node6" class="node">
<title>comp_win_scissors</title>
<ellipse fill="firebrick" stroke="black" cx="503.63" cy="-18" rx="40.76" ry="18"/>
<text text-anchor="start" x="478.63" y="-14.9" font-family="Helvetica,sans-Serif" font-size="12.00" fill="white">&quot;Ik win!&quot;</text>
</g>
<!-- user_win_rock -->
<g id="node7" class="node">
<title>user_win_rock</title>
<ellipse fill="firebrick" stroke="black" cx="352.63" cy="-103" rx="47.3" ry="18"/>
<text text-anchor="start" x="322.13" y="-99.9" font-family="Helvetica,sans-Serif" font-size="12.00" fill="white">&quot;Jij wint...&quot;</text>
</g>
<!-- user_win_paper -->
<g id="node8" class="node">
<title>user_win_paper</title>
<ellipse fill="firebrick" stroke="black" cx="609.63" cy="-18" rx="47.3" ry="18"/>
<text text-anchor="start" x="579.13" y="-14.9" font-family="Helvetica,sans-Serif" font-size="12.00" fill="white">&quot;Jij wint...&quot;</text>
</g>
<!-- user_win_scissors -->
<g id="node9" class="node">
<title>user_win_scissors</title>
<ellipse fill="firebrick" stroke="black" cx="146.63" cy="-188" rx="47.3" ry="18"/>
<text text-anchor="start" x="116.13" y="-184.9" font-family="Helvetica,sans-Serif" font-size="12.00" fill="white">&quot;Jij wint...&quot;</text>
</g>
<!-- draw&#45;&gt;is_draw -->
<g id="edge3" class="edge">
<title>draw&#45;&gt;is_draw</title>
<path fill="none" stroke="black" d="M99.89,-425.6C96.61,-414.27 92.18,-398.94 88.39,-385.84"/>
<polygon fill="black" stroke="black" points="91.67,-384.57 85.53,-375.93 84.94,-386.51 91.67,-384.57"/>
<text text-anchor="start" x="94.63" y="-397.4" font-family="Helvetica,sans-Serif" font-size="12.00">True</text>
</g>
<!-- comp_rock -->
<g id="node11" class="node">
<title>comp_rock</title>
<polygon fill="lavender" stroke="black" points="257.63,-376 149.73,-358 257.63,-340 365.53,-358 257.63,-376"/>
<text text-anchor="start" x="203.63" y="-355.9" font-family="Helvetica,sans-Serif" font-weight="bold" font-size="12.00">comp</text>
<text text-anchor="start" x="240.63" y="-355.9" font-family="Helvetica,sans-Serif" font-size="12.00"> == &quot;steen&quot;</text>
</g>
<!-- draw&#45;&gt;comp_rock -->
<g id="edge4" class="edge">
<title>draw&#45;&gt;comp_rock</title>
<path fill="none" stroke="black" d="M128.2,-429.21C153.99,-415.22 195.53,-392.69 224.57,-376.93"/>
<polygon fill="black" stroke="black" points="226.4,-379.92 233.53,-372.08 223.07,-373.77 226.4,-379.92"/>
<text text-anchor="start" x="190.63" y="-397.4" font-family="Helvetica,sans-Serif" font-size="12.00">False</text>
</g>
<!-- user_scissors -->
<g id="node12" class="node">
<title>user_scissors</title>
<polygon fill="lavender" stroke="black" points="113.63,-291 3.74,-273 113.63,-255 223.51,-273 113.63,-291"/>
<text text-anchor="start" x="58.63" y="-270.9" font-family="Helvetica,sans-Serif" font-weight="bold" font-size="12.00">user</text>
<text text-anchor="start" x="89.63" y="-270.9" font-family="Helvetica,sans-Serif" font-size="12.00"> == &quot;schaar&quot;</text>
</g>
<!-- comp_rock&#45;&gt;user_scissors -->
<g id="edge6" class="edge">
<title>comp_rock&#45;&gt;user_scissors</title>
<path fill="none" stroke="black" d="M234.49,-343.66C210.35,-329.75 172.33,-307.83 145.38,-292.3"/>
<polygon fill="black" stroke="black" points="147.12,-289.26 136.71,-287.3 143.62,-295.33 147.12,-289.26"/>
<text text-anchor="start" x="194.63" y="-312.4" font-family="Helvetica,sans-Serif" font-size="12.00">True</text>
</g>
<!-- comp_paper -->
<g id="node13" class="node">
<title>comp_paper</title>
<polygon fill="lavender" stroke="black" points="353.63,-291 241.52,-273 353.63,-255 465.74,-273 353.63,-291"/>
<text text-anchor="start" x="297.13" y="-270.9" font-family="Helvetica,sans-Serif" font-weight="bold" font-size="12.00">comp</text>
<text text-anchor="start" x="334.13" y="-270.9" font-family="Helvetica,sans-Serif" font-size="12.00"> == &quot;papier&quot;</text>
</g>
<!-- comp_rock&#45;&gt;comp_paper -->
<g id="edge5" class="edge">
<title>comp_rock&#45;&gt;comp_paper</title>
<path fill="none" stroke="black" d="M274.35,-342.54C289.4,-329.53 311.72,-310.24 328.84,-295.43"/>
<polygon fill="black" stroke="black" points="331.5,-297.76 336.78,-288.57 326.92,-292.46 331.5,-297.76"/>
<text text-anchor="start" x="311.63" y="-312.4" font-family="Helvetica,sans-Serif" font-size="12.00">False</text>
</g>
<!-- user_scissors&#45;&gt;comp_win_rock -->
<g id="edge7" class="edge">
<title>user_scissors&#45;&gt;comp_win_rock</title>
<path fill="none" stroke="black" d="M100.24,-256.78C89.44,-244.49 74.04,-226.99 61.6,-212.85"/>
<polygon fill="black" stroke="black" points="63.91,-210.17 54.68,-204.98 58.66,-214.8 63.91,-210.17"/>
<text text-anchor="start" x="81.63" y="-227.4" font-family="Helvetica,sans-Serif" font-size="12.00">True</text>
</g>
<!-- user_scissors&#45;&gt;user_win_scissors -->
<g id="edge8" class="edge">
<title>user_scissors&#45;&gt;user_win_scissors</title>
<path fill="none" stroke="black" d="M119.99,-256C124.53,-244.59 130.74,-228.97 136.02,-215.69"/>
<polygon fill="black" stroke="black" points="139.39,-216.68 139.83,-206.1 132.88,-214.1 139.39,-216.68"/>
<text text-anchor="start" x="132.63" y="-227.4" font-family="Helvetica,sans-Serif" font-size="12.00">False</text>
</g>
<!-- user_rock -->
<g id="node14" class="node">
<title>user_rock</title>
<polygon fill="lavender" stroke="black" points="320.63,-206 217.67,-188 320.63,-170 423.58,-188 320.63,-206"/>
<text text-anchor="start" x="269.63" y="-185.9" font-family="Helvetica,sans-Serif" font-weight="bold" font-size="12.00">user</text>
<text text-anchor="start" x="300.63" y="-185.9" font-family="Helvetica,sans-Serif" font-size="12.00"> == &quot;steen&quot;</text>
</g>
<!-- comp_paper&#45;&gt;user_rock -->
<g id="edge9" class="edge">
<title>comp_paper&#45;&gt;user_rock</title>
<path fill="none" stroke="black" d="M344.79,-256.24C341.67,-250.32 338.27,-243.45 335.63,-237 332.75,-229.97 330.09,-222.18 327.84,-214.95"/>
<polygon fill="black" stroke="black" points="331.16,-213.83 324.95,-205.24 324.45,-215.83 331.16,-213.83"/>
<text text-anchor="start" x="335.63" y="-227.4" font-family="Helvetica,sans-Serif" font-size="12.00">True</text>
</g>
<!-- comp_scissors -->
<g id="node15" class="node">
<title>comp_scissors</title>
<polygon fill="lavender" stroke="black" points="556.63,-206 441.8,-188 556.63,-170 671.46,-188 556.63,-206"/>
<text text-anchor="start" x="498.63" y="-185.9" font-family="Helvetica,sans-Serif" font-weight="bold" font-size="12.00">comp</text>
<text text-anchor="start" x="535.63" y="-185.9" font-family="Helvetica,sans-Serif" font-size="12.00"> == &quot;schaar&quot;</text>
</g>
<!-- comp_paper&#45;&gt;comp_scissors -->
<g id="edge10" class="edge">
<title>comp_paper&#45;&gt;comp_scissors</title>
<path fill="none" stroke="black" d="M383.58,-259.75C418.96,-245.29 477.95,-221.17 517.06,-205.18"/>
<polygon fill="black" stroke="black" points="518.62,-208.32 526.55,-201.3 515.97,-201.84 518.62,-208.32"/>
<text text-anchor="start" x="467.63" y="-227.4" font-family="Helvetica,sans-Serif" font-size="12.00">False</text>
</g>
<!-- user_rock&#45;&gt;comp_win_paper -->
<g id="edge11" class="edge">
<title>user_rock&#45;&gt;comp_win_paper</title>
<path fill="none" stroke="black" d="M307.4,-172.16C296.38,-159.81 280.5,-141.99 267.73,-127.67"/>
<polygon fill="black" stroke="black" points="270.28,-125.26 261.01,-120.13 265.05,-129.92 270.28,-125.26"/>
<text text-anchor="start" x="288.63" y="-142.4" font-family="Helvetica,sans-Serif" font-size="12.00">True</text>
</g>
<!-- user_rock&#45;&gt;user_win_rock -->
<g id="edge12" class="edge">
<title>user_rock&#45;&gt;user_win_rock</title>
<path fill="none" stroke="black" d="M326.8,-171C331.2,-159.59 337.22,-143.97 342.34,-130.69"/>
<polygon fill="black" stroke="black" points="345.71,-131.69 346.04,-121.1 339.17,-129.17 345.71,-131.69"/>
<text text-anchor="start" x="338.63" y="-142.4" font-family="Helvetica,sans-Serif" font-size="12.00">False</text>
</g>
<!-- user_paper -->
<g id="node16" class="node">
<title>user_paper</title>
<polygon fill="lavender" stroke="black" points="556.63,-121 449.47,-103 556.63,-85 663.79,-103 556.63,-121"/>
<text text-anchor="start" x="503.13" y="-100.9" font-family="Helvetica,sans-Serif" font-weight="bold" font-size="12.00">user</text>
<text text-anchor="start" x="534.13" y="-100.9" font-family="Helvetica,sans-Serif" font-size="12.00"> == &quot;papier&quot;</text>
</g>
<!-- comp_scissors&#45;&gt;user_paper -->
<g id="edge13" class="edge">
<title>comp_scissors&#45;&gt;user_paper</title>
<path fill="none" stroke="black" d="M556.63,-169.8C556.63,-158.67 556.63,-143.94 556.63,-131.24"/>
<polygon fill="black" stroke="black" points="560.13,-131.18 556.63,-121.18 553.13,-131.18 560.13,-131.18"/>
<text text-anchor="start" x="556.63" y="-142.4" font-family="Helvetica,sans-Serif" font-size="12.00">True</text>
</g>
<!-- user_paper&#45;&gt;comp_win_scissors -->
<g id="edge14" class="edge">
<title>user_paper&#45;&gt;comp_win_scissors</title>
<path fill="none" stroke="black" d="M546.66,-86.39C539.03,-74.45 528.37,-57.74 519.56,-43.95"/>
<polygon fill="black" stroke="black" points="522.43,-41.94 514.1,-35.39 516.53,-45.71 522.43,-41.94"/>
<text text-anchor="start" x="533.63" y="-57.4" font-family="Helvetica,sans-Serif" font-size="12.00">True</text>
</g>
<!-- user_paper&#45;&gt;user_win_paper -->
<g id="edge15" class="edge">
<title>user_paper&#45;&gt;user_win_paper</title>
<path fill="none" stroke="black" d="M566.6,-86.39C574.17,-74.52 584.75,-57.96 593.52,-44.22"/>
<polygon fill="black" stroke="black" points="596.55,-45.99 598.98,-35.68 590.65,-42.23 596.55,-45.99"/>
<text text-anchor="start" x="586.63" y="-57.4" font-family="Helvetica,sans-Serif" font-size="12.00">False</text>
</g>
</g>
</svg>
