<?xml version="1.0" encoding="UTF-8" standalone="no"?>
<!DOCTYPE svg PUBLIC "-//W3C//DTD SVG 1.1//EN"
 "http://www.w3.org/Graphics/SVG/1.1/DTD/svg11.dtd">
<!-- Generated by graphviz version 2.43.0 (0)
 -->
<!-- Title: rps3 Pages: 1 -->
<svg width="276pt" height="238pt"
 viewBox="0.00 0.00 198.81 171.27" xmlns="http://www.w3.org/2000/svg" xmlns:xlink="http://www.w3.org/1999/xlink">
<g id="graph0" class="graph" transform="scale(0.72 0.72) rotate(0) translate(4 167.27)">
<title>rps3</title>
<polygon fill="white" stroke="transparent" points="-4,4 -4,-167.27 194.81,-167.27 194.81,4 -4,4"/>
<!-- steen -->
<g id="node1" class="node">
<title>steen</title>
<ellipse fill="none" stroke="black" cx="40.95" cy="-18" rx="36" ry="18"/>
<text text-anchor="middle" x="40.95" y="-14.3" font-family="Helvetica,sans-Serif" font-size="14.00">steen</text>
</g>
<!-- schaar -->
<g id="node2" class="node">
<title>schaar</title>
<ellipse fill="none" stroke="black" cx="40.95" cy="-145.27" rx="40.89" ry="18"/>
<text text-anchor="middle" x="40.95" y="-141.57" font-family="Helvetica,sans-Serif" font-size="14.00">schaar</text>
</g>
<!-- steen&#45;&gt;schaar -->
<g id="edge1" class="edge">
<title>steen&#45;&gt;schaar</title>
<path fill="none" stroke="black" d="M40.95,-36.23C40.95,-57.31 40.95,-92.25 40.95,-116.88"/>
<polygon fill="black" stroke="black" points="37.45,-117.07 40.95,-127.07 44.45,-117.07 37.45,-117.07"/>
</g>
<!-- papier -->
<g id="node3" class="node">
<title>papier</title>
<ellipse fill="none" stroke="black" cx="151.16" cy="-81.63" rx="39.79" ry="18"/>
<text text-anchor="middle" x="151.16" y="-77.93" font-family="Helvetica,sans-Serif" font-size="14.00">papier</text>
</g>
<!-- schaar&#45;&gt;papier -->
<g id="edge2" class="edge">
<title>schaar&#45;&gt;papier</title>
<path fill="none" stroke="black" d="M65.96,-130.83C81.28,-121.98 101.09,-110.54 117.75,-100.93"/>
<polygon fill="black" stroke="black" points="119.72,-103.83 126.63,-95.8 116.22,-97.77 119.72,-103.83"/>
</g>
<!-- papier&#45;&gt;steen -->
<g id="edge3" class="edge">
<title>papier&#45;&gt;steen</title>
<path fill="none" stroke="black" d="M126.43,-67.35C110.79,-58.33 90.41,-46.56 73.47,-36.78"/>
<polygon fill="black" stroke="black" points="74.88,-33.55 64.47,-31.58 71.38,-39.61 74.88,-33.55"/>
</g>
</g>
</svg>
